<svg width="226" height="226" viewBox="0 0 226 226" fill="none" xmlns="http://www.w3.org/2000/svg">
<path d="M63.514 70.6107C75.0745 56.6583 91.6426 47.7923 109.664 45.9143C127.686 44.0364 145.726 49.2961 159.915 60.5653C174.104 71.8345 183.311 88.2156 185.562 106.195C187.812 124.174 182.927 142.319 171.954 156.738L170.984 156C181.764 141.835 186.563 124.009 184.352 106.346C182.141 88.6834 173.096 72.5907 159.157 61.5198C145.218 50.449 127.495 45.2818 109.791 47.1267C92.0862 48.9716 75.8096 57.6816 64.4526 71.3884L63.514 70.6107Z" fill="black" fill-opacity="0.2"/>
<path d="M96.9579 148.789C78.1848 137.807 71.8688 113.685 82.8507 94.9123C93.8327 76.1392 117.954 69.8232 136.727 80.8051C155.5 91.7871 161.816 115.908 150.834 134.681C139.852 153.455 115.731 159.771 96.9579 148.789ZM135.613 82.7088C117.892 72.3419 95.1213 78.3041 84.7544 96.0259C74.3875 113.748 80.3497 136.518 98.0715 146.885C115.793 157.252 138.564 151.29 148.931 133.568C159.297 115.846 153.335 93.0757 135.613 82.7088Z" fill="black" fill-opacity="0.2"/>
<path d="M110.622 126.104C104.634 122.601 102.619 114.907 106.122 108.919C109.625 102.931 117.319 100.916 123.306 104.419C129.294 107.922 131.309 115.616 127.806 121.604C124.303 127.592 116.609 129.606 110.622 126.104ZM121.3 107.849C117.206 105.454 111.946 106.831 109.551 110.925C107.156 115.019 108.534 120.279 112.628 122.674C116.722 125.069 121.982 123.692 124.377 119.598C126.772 115.504 125.394 110.243 121.3 107.849Z" fill="black" fill-opacity="0.2"/>
<path d="M186.138 74.9666C192.427 87.126 195.59 100.659 195.344 114.346C195.098 128.033 191.449 141.443 184.728 153.368L183.33 152.581C189.921 140.887 193.498 127.738 193.74 114.317C193.981 100.896 190.879 87.6265 184.713 75.7036L186.138 74.9666Z" fill="black" fill-opacity="0.2"/>
<path d="M90.6068 42.8452C99.5572 39.5875 109.034 38.0173 118.557 38.2142L118.503 40.7921C109.299 40.6018 100.14 42.1195 91.4886 45.2682L90.6068 42.8452Z" fill="black" fill-opacity="0.2"/>
<path d="M99.2931 72.0919C107.646 68.6595 116.821 67.7518 125.685 69.4812C134.548 71.2106 142.709 75.5012 149.159 81.8219L147.61 83.4022C141.47 77.3844 133.699 73.2994 125.261 71.6528C116.822 70.0063 108.086 70.8705 100.134 74.1384L99.2931 72.0919Z" fill="black" fill-opacity="0.2"/>
</svg>
