<svg width="17" height="18" viewBox="0 0 17 18" fill="none" xmlns="http://www.w3.org/2000/svg">
<path fill-rule="evenodd" clip-rule="evenodd" d="M15.4731 2.33329V10.6666C15.4731 11.5871 14.7552 12.3333 13.8696 12.3333H9.05901V13.5281L12.6786 15.7854L11.8536 17.2145L9.05901 15.4718V17.3333H7.45548V15.4718L4.66094 17.2145L3.83593 15.7854L7.45548 13.5281V12.3333H2.64491C1.75931 12.3333 1.04139 11.5871 1.04139 10.6666V2.33329H0.239624V0.666626H16.2749V2.33329H15.4731ZM2.64491 2.33329V10.6666H13.8696V2.33329H2.64491ZM5.0502 8.99996H6.65372V5.66663H5.0502V8.99996ZM9.05901 8.99996H7.45548V3.99996H9.05901V8.99996ZM9.86077 8.99996H11.4643V6.49996H9.86077V8.99996Z" fill="#7C7C7C"/>
</svg>
