<svg width="9" height="9" viewBox="0 0 9 9" fill="none" xmlns="http://www.w3.org/2000/svg">
<path fill-rule="evenodd" clip-rule="evenodd" d="M6.16401 0.75C6.40953 0.75 6.6449 0.848032 6.81679 1.02128L7.97963 2.18412C8.15276 2.35725 8.25002 2.59206 8.25002 2.83691C8.25002 3.08175 8.15276 3.31656 7.97963 3.48969L3.73407 7.73391C3.47213 8.03606 3.10084 8.2217 2.67548 8.25087H0.75V7.87587L0.751218 6.29524C0.783164 5.89981 0.967 5.53212 1.24744 5.28503L5.51077 1.02174C5.68365 0.847811 5.91876 0.75 6.16401 0.75ZM2.64899 7.50181C2.84933 7.48763 3.03581 7.39439 3.18555 7.22311L6.02126 4.38739L4.61337 2.97945L1.76104 5.8311C1.60911 5.96547 1.51512 6.15346 1.5 6.32544V7.5011L2.64899 7.50181ZM5.14377 2.44918L6.55159 3.85706L7.4493 2.95936C7.48177 2.92688 7.50002 2.88283 7.50002 2.8369C7.50002 2.79098 7.48177 2.74693 7.4493 2.71445L6.28542 1.55057C6.25331 1.5182 6.2096 1.5 6.16401 1.5C6.11841 1.5 6.0747 1.5182 6.04259 1.55057L5.14377 2.44918Z" fill="#707070"/>
</svg>
