<svg width="243" height="243" viewBox="0 0 243 243" fill="none" xmlns="http://www.w3.org/2000/svg">
<path d="M102.132 215.24C75.547 210.236 52.0385 194.876 36.7783 172.539C21.5181 150.202 15.7562 122.717 20.7603 96.1322C25.7643 69.547 41.1243 46.0385 63.4613 30.7783C85.7983 15.5181 113.283 9.75621 139.868 14.7602L139.536 16.5245C113.418 11.6086 86.4179 17.269 64.474 32.2606C42.5302 47.2523 27.4405 70.347 22.5246 96.4643C17.6086 122.582 23.269 149.582 38.2606 171.526C53.2522 193.47 76.347 208.559 102.464 213.475L102.132 215.24Z" fill="black" fill-opacity="0.2"/>
<path d="M140.757 169.531C132.044 172.688 122.702 173.711 113.513 172.515C104.324 171.318 95.5547 167.938 87.9406 162.656C80.3265 157.374 74.0888 150.344 69.75 142.156C65.4113 133.967 63.0977 124.859 63.003 115.592C62.9084 106.326 65.0354 97.1719 69.2061 88.8966C73.3767 80.6213 79.4694 73.4658 86.9741 68.0294C94.4787 62.593 103.177 59.0339 112.34 57.6502C121.503 56.2665 130.864 57.0985 139.639 60.0765L138.595 63.1525C130.311 60.3412 121.474 59.5558 112.825 60.862C104.175 62.1682 95.964 65.528 88.8797 70.6599C81.7953 75.7919 76.0438 82.5466 72.1067 90.3585C68.1697 98.1703 66.1617 106.812 66.2511 115.559C66.3404 124.307 68.5244 132.905 72.6202 140.635C76.716 148.365 82.6043 155.001 89.792 159.987C96.9797 164.973 105.258 168.164 113.932 169.294C122.607 170.423 131.426 169.457 139.651 166.477L140.757 169.531Z" fill="black" fill-opacity="0.2"/>
<path d="M140 114.5C140 124.717 131.717 133 121.5 133C111.283 133 103 124.717 103 114.5C103 104.283 111.283 96 121.5 96C131.717 96 140 104.283 140 114.5ZM104.036 114.5C104.036 124.145 111.855 131.964 121.5 131.964C131.145 131.964 138.964 124.145 138.964 114.5C138.964 104.855 131.145 97.0361 121.5 97.0361C111.855 97.0361 104.036 104.855 104.036 114.5Z" fill="black" fill-opacity="0.2"/>
<path d="M18.8318 56.527C29.6132 39.4906 44.4647 25.4048 62.0475 15.5394C79.6302 5.67403 99.3917 0.339148 119.55 0.0156422L119.588 2.3784C99.8217 2.69561 80.4446 7.92674 63.2038 17.6003C45.9629 27.2738 31.4003 41.0856 20.8286 57.7907L18.8318 56.527Z" fill="black" fill-opacity="0.2"/>
<path d="M49.0408 201.861C38.2433 192.905 29.1995 182.025 22.368 169.773L23.8457 168.949C30.5754 181.019 39.4843 191.736 50.1208 200.559L49.0408 201.861Z" fill="black" fill-opacity="0.2"/>
<path d="M79.7614 169.068C69.1863 161.002 61.2087 150.013 56.816 137.459C52.4233 124.905 51.8083 111.339 55.0473 98.4398L56.0304 98.6866C52.8397 111.394 53.4455 124.758 57.7727 137.124C62.0999 149.491 69.9586 160.317 80.3761 168.262L79.7614 169.068Z" fill="black" fill-opacity="0.2"/>
</svg>
